<svg width="16" height="16" viewBox="0 0 16 16" fill="none" xmlns="http://www.w3.org/2000/svg">
<path d="M2.66699 10.5H6.66699C6.69835 10.5 6.72135 10.5041 6.74023 10.5117L6.78906 10.5459C6.81771 10.5751 6.83301 10.6048 6.83301 10.667V13.333C6.83301 13.3645 6.82882 13.3875 6.82129 13.4062L6.78809 13.4541C6.75836 13.4838 6.72947 13.4999 6.66699 13.5H2.66699C2.63557 13.5 2.61242 13.4959 2.59375 13.4883L2.5459 13.4551L2.54492 13.4541L2.51172 13.4062C2.5041 13.3876 2.5 13.3644 2.5 13.333V10.667C2.5 10.6358 2.50412 10.6126 2.51172 10.5938L2.5459 10.5449C2.57483 10.516 2.60387 10.5 2.66699 10.5ZM9.33301 7.83301H13.333C13.3644 7.83301 13.3876 7.83725 13.4062 7.84473L13.4541 7.87793C13.4839 7.90771 13.5 7.93729 13.5 8V13.333C13.5 13.3644 13.4959 13.3876 13.4883 13.4062L13.4551 13.4541L13.4541 13.4551C13.425 13.4843 13.3957 13.5 13.333 13.5H9.33301C9.30191 13.5 9.2793 13.4958 9.26074 13.4883L9.21289 13.4551L9.21191 13.4541L9.17773 13.4062C9.17018 13.3876 9.16699 13.3643 9.16699 13.333V8C9.16699 7.9373 9.18214 7.90771 9.21191 7.87793C9.24084 7.849 9.27 7.83306 9.33301 7.83301ZM2.83301 13.167H6.5V10.833H2.83301V13.167ZM9.5 13.167H13.167V8.16699H9.5V13.167ZM2.66699 2.5H6.66699C6.69835 2.50003 6.72135 2.50411 6.74023 2.51172L6.78906 2.5459C6.81771 2.57508 6.83301 2.60476 6.83301 2.66699V8C6.83301 8.06324 6.81707 8.09211 6.78809 8.12109C6.75841 8.15072 6.72936 8.16694 6.66699 8.16699H2.66699C2.63564 8.16699 2.6124 8.16286 2.59375 8.15527L2.5459 8.12207L2.54492 8.12012L2.51172 8.07324C2.50402 8.05452 2.5 8.03158 2.5 8V2.66699C2.5 2.60429 2.51611 2.57471 2.5459 2.54492C2.57483 2.51604 2.60387 2.5 2.66699 2.5ZM2.83301 7.83301H6.5V2.83301H2.83301V7.83301ZM9.33301 2.5H13.333C13.3644 2.5 13.3876 2.50422 13.4062 2.51172L13.4541 2.54492C13.4839 2.57471 13.5 2.60429 13.5 2.66699V5.33301C13.5 5.36443 13.4959 5.38758 13.4883 5.40625L13.4551 5.4541L13.4541 5.45508C13.425 5.48428 13.3957 5.5 13.333 5.5H9.33301C9.30191 5.49997 9.2793 5.4958 9.26074 5.48828L9.21289 5.45508L9.21191 5.4541L9.17773 5.40625C9.17018 5.38762 9.16699 5.3643 9.16699 5.33301V2.66699C9.16699 2.60441 9.18224 2.57465 9.21191 2.54492C9.24084 2.51599 9.27 2.50005 9.33301 2.5ZM9.5 5.16699H13.167V2.83301H9.5V5.16699Z" fill="black" stroke="white"/>
</svg>
