<svg width="16" height="16" viewBox="0 0 16 16" fill="none" xmlns="http://www.w3.org/2000/svg">
<path d="M4.5 1.02344H7.375C7.40194 1.02344 7.42822 1.03369 7.44727 1.05273C7.46631 1.07178 7.47656 1.09806 7.47656 1.125V5.5C7.47656 5.90404 7.63715 6.29145 7.92285 6.57715C8.20855 6.86285 8.59596 7.02344 9 7.02344H13.375C13.4019 7.02344 13.4282 7.03369 13.4473 7.05273C13.4663 7.07178 13.4766 7.09806 13.4766 7.125V13C13.4766 13.5242 13.2681 14.0268 12.8975 14.3975C12.5268 14.7681 12.0242 14.9766 11.5 14.9766H4.5C3.97578 14.9766 3.47322 14.7681 3.10254 14.3975C2.73186 14.0268 2.52344 13.5242 2.52344 13V3C2.52344 2.47578 2.73186 1.97322 3.10254 1.60254C3.47322 1.23186 3.97578 1.02344 4.5 1.02344ZM5.5 10.9766C5.36118 10.9766 5.22805 11.0317 5.12988 11.1299C5.03172 11.228 4.97656 11.3612 4.97656 11.5C4.97656 11.6388 5.03172 11.772 5.12988 11.8701C5.22805 11.9683 5.36118 12.0234 5.5 12.0234H10.5C10.6388 12.0234 10.772 11.9683 10.8701 11.8701C10.9683 11.772 11.0234 11.6388 11.0234 11.5C11.0234 11.3612 10.9683 11.228 10.8701 11.1299C10.772 11.0317 10.6388 10.9766 10.5 10.9766H5.5ZM5.5 8.47656C5.36118 8.47656 5.22805 8.53172 5.12988 8.62988C5.03172 8.72805 4.97656 8.86118 4.97656 9C4.97656 9.13882 5.03172 9.27195 5.12988 9.37012C5.22805 9.46828 5.36118 9.52344 5.5 9.52344H10.5C10.6388 9.52344 10.772 9.46828 10.8701 9.37012C10.9683 9.27195 11.0234 9.13882 11.0234 9C11.0234 8.86118 10.9683 8.72805 10.8701 8.62988C10.772 8.53172 10.6388 8.47656 10.5 8.47656H5.5Z" fill="#232321" stroke="#232321" stroke-width="0.046875"/>
<path d="M8.57031 1.40564L8.58984 1.41638L13.084 5.91052V5.90955C13.0894 5.91501 13.0932 5.9225 13.0947 5.93005C13.0962 5.93754 13.0957 5.94546 13.0928 5.95251C13.0898 5.95963 13.0845 5.9658 13.0781 5.97009C13.0718 5.97434 13.0643 5.97686 13.0566 5.97693H9C8.87369 5.97693 8.75244 5.92655 8.66309 5.83728C8.57379 5.74799 8.52353 5.62664 8.52344 5.50037V1.44373L8.53027 1.42224C8.53457 1.41585 8.54073 1.41054 8.54785 1.40759C8.5549 1.40473 8.56285 1.40416 8.57031 1.40564Z" fill="#232321" stroke="#232321" stroke-width="0.046875"/>
</svg>
