<svg width="18" height="22" viewBox="0 0 18 22" fill="none" xmlns="http://www.w3.org/2000/svg">
<path d="M5.86536 19.2734H12.1359C12.1642 19.2734 12.1923 19.281 12.2169 19.2949C12.2414 19.3088 12.2619 19.3285 12.2765 19.3525C12.2911 19.3767 12.2991 19.4044 12.2999 19.4326L12.296 19.4746C12.2929 19.4882 12.2879 19.5013 12.2814 19.5137C12.0023 20.0323 11.6051 20.4771 11.1232 20.8115L10.9113 20.9482C10.3336 21.2937 9.67313 21.476 9.00012 21.4766L8.74817 21.4678C8.24671 21.4334 7.75748 21.2976 7.30969 21.0693L7.08899 20.9473C6.58361 20.6449 6.15791 20.2281 5.84583 19.7314L5.71887 19.5137C5.71238 19.5013 5.70736 19.4881 5.70422 19.4746L5.70032 19.4326C5.70073 19.4186 5.70327 19.4049 5.70715 19.3916L5.72375 19.3525C5.73111 19.3404 5.73999 19.3291 5.75012 19.3193L5.7843 19.2949C5.79675 19.2879 5.80965 19.2819 5.82336 19.2783L5.86536 19.2734ZM9.00012 0.523438C10.2451 0.523489 11.352 1.42837 11.757 2.78418L11.7794 2.77734L11.755 2.78516L11.7618 2.79297C11.7745 2.80764 11.7899 2.81969 11.8068 2.8291L11.8058 2.83008L11.8087 2.83105C12.797 3.23767 13.5757 3.76926 14.1788 4.4502L14.4269 4.75098C15.2848 5.87075 15.7208 7.36526 15.7208 9.18945C15.7208 10.9558 15.877 12.0301 16.1632 12.8193C16.378 13.4116 16.6659 13.8428 17.0138 14.2842L17.382 14.7363L17.6105 15.0137C17.7839 15.2232 17.9023 15.4725 17.9542 15.7383L17.9718 15.8525C18.0048 16.1224 17.9697 16.3958 17.8702 16.6475L17.8234 16.7539C17.5373 17.3519 16.934 17.7255 16.2423 17.7256H1.76282C1.11121 17.7255 0.536757 17.3965 0.232544 16.8604L0.174927 16.751L0.129028 16.6445C0.0440805 16.4288 0.00575582 16.1974 0.0177002 15.9658L0.0284424 15.8506C0.0617494 15.5811 0.161293 15.3244 0.318481 15.1045L0.389771 15.0127L0.619263 14.7344C1.13516 14.1116 1.55172 13.609 1.83801 12.8193C2.12411 12.0301 2.27941 10.9555 2.27942 9.18848C2.27942 7.58866 2.59978 6.26971 3.24817 5.21582C3.85615 4.22784 4.75377 3.4703 5.94934 2.93262L6.1925 2.82812L6.19446 2.82715C6.2109 2.81796 6.22585 2.80603 6.2384 2.79199L6.24036 2.79395L6.24329 2.7832C6.6482 1.42869 7.75504 0.523438 9.00012 0.523438Z" fill="#232321" stroke="#232321" stroke-width="0.046875"/>
</svg>
